# xmcd
# 
# Track frame offsets:
#     150
#     22900
#     41853
#     75217
# 
# Disc length: 2023
# 
# Revision: 7
# Processed by: cddbd v1.5.2PL0 Copyright (c) Steve Scherf et al.
# Submitted via: fre:ac v1.0.31
# 
DISCID=1f07e504
DTITLE=Various Artist - ばらの花
DYEAR=2001
DGENRE=
TTITLE0=くるり - ばらの花
TTITLE1=くるり - 青写真
TTITLE2=くるり - イメージファイト
TTITLE3=くるり - Extra
EXTD=
EXTT0=Kururi
EXTT1=Kururi
EXTT2=Kururi
EXTT3=Kururi
PLAYORDER=
